<svg width="316" height="316" viewBox="0 0 316 316" fill="none" xmlns="http://www.w3.org/2000/svg">
<mask id="mask0_27_326" style="mask-type:luminance" maskUnits="userSpaceOnUse" x="2" y="2" width="313" height="313">
<path d="M2.03662 2.03638H314.297V314.297H2.03662V2.03638Z" fill="white"/>
</mask>
<g mask="url(#mask0_27_326)">
<mask id="mask1_27_326" style="mask-type:luminance" maskUnits="userSpaceOnUse" x="2" y="2" width="313" height="313">
<path d="M158.167 2.03638C71.9377 2.03638 2.03662 71.9374 2.03662 158.167C2.03662 244.396 71.9377 314.297 158.167 314.297C244.396 314.297 314.297 244.396 314.297 158.167C314.297 71.9374 244.396 2.03638 158.167 2.03638Z" fill="white"/>
</mask>
<g mask="url(#mask1_27_326)">
<path d="M2.03662 2.03638H314.297V314.297H2.03662V2.03638Z" fill="white"/>
</g>
</g>
<mask id="mask2_27_326" style="mask-type:luminance" maskUnits="userSpaceOnUse" x="0" y="0" width="316" height="316">
<path d="M0 0H316V316H0V0Z" fill="white"/>
</mask>
<g mask="url(#mask2_27_326)">
<path fill-rule="evenodd" clip-rule="evenodd" d="M158.167 316.323C70.8697 316.323 -0.010498 245.443 -0.010498 158.156C-0.010498 70.8646 70.8697 -0.010376 158.167 -0.010376C245.458 -0.010376 316.323 70.8646 316.323 158.156C316.323 245.443 245.458 316.323 158.167 316.323ZM158.167 312.896C243.557 312.896 312.896 243.557 312.896 158.156C312.896 72.75 243.557 3.41671 158.167 3.41671C72.7655 3.41671 3.41659 72.75 3.41659 158.156C3.41659 243.557 72.7655 312.896 158.167 312.896ZM255.146 158.156C255.146 160.542 253.203 162.484 250.818 162.484C248.437 162.484 246.495 160.542 246.495 158.156C246.495 155.766 248.437 153.833 250.818 153.833C253.203 153.833 255.146 155.766 255.146 158.156ZM69.6666 118.271C69.2812 119.13 68.276 119.505 67.4062 119.115C66.5468 118.729 66.1614 117.714 66.5468 116.854C82.3176 81.974 117.427 57.6771 158.167 57.6771C198.896 57.6771 234.005 81.974 249.776 116.854C250.167 117.714 249.776 118.729 248.917 119.115C248.052 119.505 247.047 119.13 246.646 118.271C231.422 84.5678 197.516 61.1094 158.167 61.1094C118.807 61.1094 84.901 84.5678 69.6666 118.271ZM246.646 198.052C247.047 197.182 248.052 196.807 248.917 197.193C249.776 197.583 250.167 198.599 249.776 199.458C234.005 234.333 198.896 258.63 158.167 258.63C117.427 258.63 82.3176 234.333 66.5468 199.458C66.1614 198.599 66.5468 197.583 67.4062 197.193C68.276 196.807 69.2812 197.182 69.6666 198.052C84.901 231.74 118.807 255.203 158.167 255.203C197.516 255.203 231.422 231.74 246.646 198.052ZM69.828 158.156C69.828 160.542 67.8853 162.484 65.5103 162.484C63.1093 162.484 61.177 160.542 61.177 158.156C61.177 155.766 63.1093 153.833 65.5103 153.833C67.8853 153.833 69.828 155.766 69.828 158.156Z" fill="#423B32"/>
</g>
<mask id="mask3_27_326" style="mask-type:luminance" maskUnits="userSpaceOnUse" x="145" y="77" width="26" height="98">
<path d="M145.5 77.5H170.833V174.833H145.5V77.5Z" fill="white"/>
</mask>
<g mask="url(#mask3_27_326)">
<mask id="mask4_27_326" style="mask-type:luminance" maskUnits="userSpaceOnUse" x="105" y="69" width="106" height="106">
<path d="M105.885 122.089L158.208 69.7656L210.537 122.089L158.208 174.417L105.885 122.089Z" fill="white"/>
</mask>
<g mask="url(#mask4_27_326)">
<mask id="mask5_27_326" style="mask-type:luminance" maskUnits="userSpaceOnUse" x="105" y="69" width="106" height="106">
<path d="M105.885 122.089L158.208 69.7656L210.537 122.089L158.208 174.417L105.885 122.089Z" fill="white"/>
</mask>
<g mask="url(#mask5_27_326)">
<path d="M153.063 77.7135C151.255 77.7135 149.557 78.4166 148.276 79.6979C147 80.9739 146.297 82.677 146.297 84.4843V107.125C146.297 107.703 146.76 108.167 147.339 108.167C147.917 108.167 148.38 107.703 148.38 107.125V99.5833H153.49V150.276H148.406C148.396 150.026 148.38 149.771 148.38 149.516V110.917C148.38 110.339 147.917 109.875 147.339 109.875C146.76 109.875 146.297 110.339 146.297 110.917V149.516C146.297 153.208 147.302 156.839 149.198 160.005L157.068 173.109C157.255 173.427 157.594 173.62 157.958 173.62C158.24 173.615 158.505 173.505 158.698 173.312C158.755 173.255 158.807 173.187 158.854 173.109L166.099 161.031C166.396 160.542 166.234 159.901 165.745 159.604C165.25 159.307 164.609 159.469 164.313 159.964L162.276 163.359L153.641 163.354L150.99 158.932C149.776 156.906 148.979 154.677 148.615 152.365H154.526H154.531H167.292C167.031 154.01 166.573 155.62 165.865 157.161C165.625 157.682 165.854 158.302 166.375 158.542C166.781 158.734 167.25 158.635 167.547 158.333C167.635 158.25 167.703 158.151 167.76 158.031C168.995 155.344 169.62 152.479 169.62 149.516V84.4843C169.62 80.75 166.589 77.7135 162.854 77.7135H153.063ZM161.026 165.443L157.958 170.547L154.896 165.443H161.026ZM148.38 93.9635L167.536 93.9583V97.5H148.38V93.9635ZM167.536 149.516C167.536 149.771 167.505 150.026 167.495 150.276H155.573V99.5833H160.568V138.599C160.568 139.172 161.031 139.641 161.609 139.641C161.896 139.641 162.156 139.521 162.349 139.333C162.536 139.146 162.651 138.885 162.651 138.599V99.5833H167.536V149.516ZM167.536 84.4843V91.875H148.38V84.4843C148.38 83.2291 148.87 82.0573 149.755 81.1718C150.635 80.2864 151.813 79.802 153.063 79.802L162.854 79.7968C165.438 79.802 167.536 81.901 167.536 84.4843ZM161.609 141.812C162.188 141.812 162.651 142.281 162.651 142.854V146.979C162.651 147.271 162.536 147.531 162.349 147.719C162.156 147.906 161.901 148.021 161.609 148.021C161.036 148.021 160.568 147.557 160.568 146.979V142.854C160.568 142.281 161.031 141.812 161.609 141.812Z" fill="#EB682A"/>
</g>
</g>
</g>
<mask id="mask6_27_326" style="mask-type:luminance" maskUnits="userSpaceOnUse" x="130" y="69" width="57" height="57">
<path d="M130.297 69.5469H186.036V125.281H130.297V69.5469Z" fill="white"/>
</mask>
<g mask="url(#mask6_27_326)">
<path d="M130.297 69.5469H186.036V125.281H130.297V69.5469Z" fill="white"/>
</g>
<mask id="mask7_27_326" style="mask-type:luminance" maskUnits="userSpaceOnUse" x="130" y="92" width="56" height="25">
<path d="M130.781 92.3125H185.781V116.167H130.781V92.3125Z" fill="white"/>
</mask>
<g mask="url(#mask7_27_326)">
<path d="M158.162 115.245C158.052 115.245 157.938 115.224 157.839 115.182L131.38 104.599C131.047 104.464 130.823 104.141 130.823 103.776C130.823 103.417 131.047 103.094 131.38 102.958L157.839 92.375C158.047 92.2917 158.281 92.2917 158.49 92.375L184.948 102.958C185.281 103.094 185.505 103.417 185.505 103.776C185.505 104.141 185.281 104.464 184.948 104.599L180.537 106.359C180.089 106.542 179.573 106.323 179.391 105.87C179.214 105.417 179.432 104.906 179.885 104.724L182.25 103.776L158.162 94.1458L134.078 103.776L158.162 113.411L172.948 107.5C173.396 107.318 173.912 107.536 174.094 107.99C174.276 108.443 174.057 108.958 173.599 109.135L158.49 115.182C158.385 115.224 158.276 115.245 158.162 115.245Z" fill="#EB682A"/>
</g>
<path d="M158.162 128.474C152.589 128.474 147.073 126.521 142.625 122.99C142.412 122.823 142.292 122.568 142.292 122.297V111.713C142.292 111.229 142.688 110.833 143.172 110.833C143.656 110.833 144.052 111.229 144.052 111.713V121.87C148.13 124.995 153.125 126.708 158.162 126.708C163.198 126.708 168.198 124.995 172.276 121.87V111.713C172.276 111.229 172.672 110.833 173.156 110.833C173.641 110.833 174.037 111.229 174.037 111.713V122.297C174.037 122.568 173.917 122.823 173.703 122.99C169.255 126.526 163.74 128.474 158.162 128.474Z" fill="#EB682A"/>
<path d="M177.568 126.005C177.036 126.005 176.51 125.932 176.01 125.797C175.542 125.667 175.266 125.177 175.391 124.708C175.521 124.239 176.01 123.963 176.479 124.094C177.182 124.292 177.948 124.292 178.656 124.094C179.115 123.963 179.609 124.239 179.74 124.708C179.865 125.177 179.594 125.667 179.125 125.797C178.62 125.932 178.094 126.005 177.568 126.005Z" fill="#EB682A"/>
<mask id="mask8_27_326" style="mask-type:luminance" maskUnits="userSpaceOnUse" x="173" y="118" width="9" height="21">
<path d="M173.5 118.833H181.5V138.312H173.5V118.833Z" fill="white"/>
</mask>
<g mask="url(#mask8_27_326)">
<path d="M175.859 135.969C176.906 136.547 178.229 136.547 179.271 135.969L178.016 125.042C177.995 124.87 178.026 124.687 178.109 124.531C178.109 124.531 178.448 123.833 178.448 122.536C178.448 122.005 178.088 121.417 177.568 121.417C177.047 121.417 176.682 122.005 176.682 122.536C176.682 123.833 177.026 124.536 177.026 124.542C177.104 124.698 177.141 124.875 177.12 125.042L175.859 135.969ZM177.568 138.172C176.417 138.172 175.318 137.807 174.391 137.115C174.141 136.927 174.005 136.62 174.047 136.307L175.338 125.078C175.177 124.661 174.922 123.802 174.922 122.536C174.922 121.146 175.932 119.651 177.568 119.651C179.198 119.651 180.213 121.146 180.213 122.536C180.213 123.802 179.953 124.661 179.792 125.078L181.088 136.307C181.125 136.62 180.989 136.927 180.739 137.115C179.812 137.807 178.713 138.172 177.568 138.172Z" fill="#EB682A"/>
</g>
<path d="M177.568 121.417C177.078 121.417 176.682 121.021 176.682 120.536V107.328L158 103.76C157.521 103.672 157.208 103.208 157.297 102.729C157.391 102.25 157.849 101.937 158.328 102.031L177.729 105.734C178.146 105.812 178.448 106.177 178.448 106.599V120.536C178.448 121.021 178.052 121.417 177.568 121.417Z" fill="#EB682A"/>
<mask id="mask9_27_326" style="mask-type:luminance" maskUnits="userSpaceOnUse" x="114" y="174" width="88" height="57">
<path d="M114.833 174.833H201.5V230.813H114.833V174.833Z" fill="white"/>
</mask>
<g mask="url(#mask9_27_326)">
<path d="M158.011 183.51C163.745 177.234 171.214 175.578 179.016 175.167C183.891 174.906 188.828 175.412 193.724 175.578C195.136 175.635 196.016 176.359 196.927 177.479C200.349 181.646 201.505 186.208 201.339 191.667C200.964 203.766 201.224 215.885 201.224 228.01C201.224 230.875 201.078 230.932 198.36 229.854C189.495 226.297 180.412 226.521 171.344 228.714C166.333 229.943 161.38 231.078 156.208 230.578C153.542 230.318 150.828 230.094 148.24 229.443C139.151 227.151 130.068 226.089 120.886 228.771C119.49 229.182 118.13 229.74 116.771 230.297C115.505 230.818 114.964 230.333 114.912 229.089C114.891 228.51 114.891 227.917 114.891 227.318C114.891 214.026 114.948 200.75 114.833 187.458C114.818 185.057 115.636 183.193 116.698 181.125C118.912 176.88 122.005 175.073 126.787 175.073C133.099 175.073 139.412 174.813 145.594 176.396C150.344 177.609 154.698 179.563 158.011 183.51ZM159.073 226.016C169.833 217.62 181.974 218.641 194.021 219.37C194.021 205.406 194.021 191.625 194.021 177.74C185.943 176.844 177.932 176.38 170.172 178.781C167.026 179.75 164.136 181.63 161.271 183.359C159.557 184.385 159 186.135 159.016 188.276C159.13 199.057 159.073 209.854 159.073 220.635C159.073 222.292 159.073 223.969 159.073 226.016ZM122.172 177.719C122.172 191.776 122.172 205.594 122.172 219.406C143.953 218.604 144.495 218.719 156.99 225.776C157.026 225.365 157.063 225.031 157.063 224.693C157.063 212.219 157.099 199.745 156.99 187.271C156.99 186.172 156.297 184.87 155.537 184.031C152.875 181.125 149.375 179.62 145.651 178.615C137.943 176.547 130.141 176.88 122.172 177.719ZM155.516 228.604C153.115 225.198 149.745 223.688 146.172 222.667C138.557 220.469 130.813 220.656 123.047 221.51C119.88 221.865 119.88 221.922 119.88 218.641C119.88 206.896 119.88 195.167 119.88 183.417C119.88 182.651 119.807 181.891 119.771 180.755C117.927 182.99 116.938 184.885 116.958 187.552C117.11 200.099 117.031 212.646 117.031 225.198C117.031 225.979 117.031 226.781 117.031 227.75C118.469 227.302 119.641 226.912 120.833 226.594C130.865 223.896 140.714 225.068 150.511 227.917C152.094 228.38 153.844 228.38 155.516 228.604ZM196.235 181.162C196.235 182.375 196.235 183.583 196.235 184.776C196.235 196.302 196.198 207.807 196.276 219.333C196.292 221.307 195.662 221.958 193.688 221.641C191.677 221.307 189.61 221.141 187.563 221.047C180.339 220.693 173.167 220.99 166.427 223.984C164.25 224.953 162.313 226.479 160.266 227.75C160.375 228.026 160.505 228.323 160.62 228.604C162.24 228.401 163.932 228.401 165.479 227.953C172.927 225.719 180.485 224.49 188.25 225.328C191.844 225.719 195.38 226.688 199.104 227.432C199.104 226.745 199.104 225.943 199.104 225.141C199.104 212.516 199.011 199.896 199.177 187.292C199.214 184.667 198.042 182.932 196.235 181.162Z" fill="#433B32"/>
</g>
<path d="M182.047 202.781C176.818 202.781 171.714 203.505 166.781 205.333C166.203 205.552 165.406 205.198 164.714 205.109C165.146 204.547 165.443 203.693 166 203.469C172.516 200.917 179.333 200.323 186.255 200.713C186.76 200.75 187.245 201.495 187.729 201.906C187.224 202.203 186.74 202.687 186.219 202.745C184.823 202.854 183.427 202.781 182.047 202.781Z" fill="#433B32"/>
<path d="M181.266 185.448C182.943 185.448 184.636 185.37 186.292 185.5C186.797 185.542 187.245 186.135 187.729 186.49C187.188 186.823 186.688 187.38 186.125 187.438C181.266 187.906 176.391 188.167 171.547 188.703C169.833 188.891 168.214 189.745 166.521 190.135C165.964 190.271 165.292 189.917 164.677 189.766C165.068 189.245 165.386 188.385 165.87 188.255C170.932 186.99 176.052 185.854 181.136 184.703C181.172 184.964 181.229 185.203 181.266 185.448Z" fill="#433B32"/>
<path d="M182.776 210.375C177.266 210.375 171.865 211.083 166.651 213C166.109 213.208 165.385 212.906 164.734 212.854C165.125 212.276 165.385 211.401 165.906 211.177C172.406 208.625 179.198 207.917 186.125 208.401C186.667 208.443 187.188 209.094 187.708 209.464C187.151 209.781 186.63 210.266 186.052 210.339C184.99 210.469 183.875 210.375 182.776 210.375Z" fill="#433B32"/>
<path d="M181.193 194.495C176.354 195.594 171.531 196.693 166.688 197.734C166.073 197.865 165.385 197.604 164.734 197.531C165.146 196.953 165.422 196.078 165.964 195.854C172.573 193.229 179.479 192.688 186.5 193.115C186.927 193.135 187.318 193.75 187.729 194.083C187.281 194.438 186.854 195.089 186.37 195.109C184.693 195.24 183 195.167 181.323 195.167C181.286 194.943 181.25 194.719 181.193 194.495Z" fill="#433B32"/>
<path d="M133.958 202.781C132.635 202.781 131.313 202.875 130.01 202.745C129.432 202.687 128.932 202.109 128.391 201.776C128.854 201.401 129.302 200.75 129.807 200.734C136.807 200.339 143.677 200.937 150.266 203.542C150.786 203.75 151.068 204.531 151.458 205.052C150.786 205.182 149.99 205.573 149.448 205.37C144.437 203.505 139.266 202.76 133.958 202.781Z" fill="#433B32"/>
<path d="M151.531 190.063C150.901 190.099 150.229 190.286 149.635 190.156C145.573 189.318 141.552 188.255 137.458 187.604C135.036 187.214 132.505 187.531 130.026 187.401C129.469 187.365 128.948 186.786 128.406 186.469C128.875 186.135 129.323 185.521 129.823 185.484C136.823 184.943 143.677 185.688 150.266 188.219C150.786 188.427 151.219 188.927 151.682 189.281C151.625 189.542 151.589 189.802 151.531 190.063Z" fill="#433B32"/>
<path d="M135.281 207.641C140.229 208.792 145.182 209.891 150.12 211.141C150.656 211.271 150.995 212.182 151.422 212.74C150.786 212.854 150.083 213.224 149.557 213.036C143.49 210.786 137.214 210.151 130.813 210.359C130.365 210.375 129.896 210.505 129.505 210.375C129.099 210.229 128.76 209.854 128.406 209.578C128.76 209.203 129.078 208.531 129.453 208.479C131.333 208.271 133.229 208.234 135.13 208.141C135.188 207.958 135.224 207.807 135.281 207.641Z" fill="#433B32"/>
<path d="M134.255 194.958C132.786 195.036 131.333 195.182 129.859 195.13C129.359 195.109 128.891 194.531 128.406 194.198C128.854 193.823 129.281 193.156 129.766 193.135C136.786 192.724 143.677 193.266 150.286 195.891C150.786 196.094 151.068 196.896 151.438 197.417C150.807 197.547 150.135 197.885 149.542 197.755C144.479 196.693 139.448 195.536 134.406 194.401C134.349 194.604 134.292 194.776 134.255 194.958Z" fill="#433B32"/>
<path d="M51.3097 71.077C51.9242 71.2176 52.6638 71.3999 53.5388 71.6187C54.4034 71.8426 55.3253 72.0978 56.3097 72.3895C57.2992 72.6707 58.2992 72.9676 59.3097 73.2853C60.3201 73.5926 61.2784 73.8791 62.1847 74.1395C61.768 73.3062 61.3149 72.4207 60.8305 71.4728C60.3565 70.5301 59.9086 69.5926 59.4763 68.6603C59.0336 67.7332 58.6326 66.8582 58.268 66.0353C57.893 65.2176 57.5961 64.5145 57.3722 63.9312L59.643 61.2437C60.6274 61.8582 61.7055 62.5666 62.8722 63.3687C64.0492 64.1759 65.2576 65.0353 66.4972 65.952C67.7315 66.8582 68.9659 67.7801 70.2055 68.7228C71.4555 69.6551 72.6222 70.5301 73.7055 71.3478L71.2472 74.2437C69.9555 73.1916 68.5232 72.0562 66.9555 70.8478C65.3982 69.6395 63.794 68.4468 62.143 67.2645C62.4867 67.9624 62.8617 68.7176 63.268 69.5353C63.6847 70.3582 64.1013 71.1812 64.518 72.0145C64.9347 72.8374 65.3201 73.6187 65.6847 74.3687C66.0597 75.1187 66.3826 75.7593 66.6638 76.2853L64.893 78.3687C64.3097 78.1916 63.6222 77.9728 62.8305 77.7228C62.0388 77.4728 61.1951 77.2176 60.3097 76.952C59.4347 76.6759 58.5597 76.4051 57.6847 76.1395C56.8097 75.8634 56.0076 75.6134 55.268 75.3895C56.7003 76.8218 58.143 78.2124 59.6013 79.5562C61.044 80.8895 62.393 82.1134 63.643 83.2228L61.2055 86.1187C60.2055 85.1916 59.143 84.1916 58.018 83.1187C56.893 82.0353 55.7836 80.9676 54.6847 79.9103C53.5753 78.8426 52.5284 77.7957 51.5388 76.7645C50.5544 75.7384 49.6794 74.7853 48.9138 73.9103L51.3097 71.077Z" fill="#433B32"/>
<path d="M77.2467 68.2974L66.1008 55.1099L74.9967 47.5891L77.1008 50.0891L71.1633 55.1099L73.3717 57.6933L78.6633 53.2349L80.705 55.6724L75.4133 60.1308L78.1008 63.2974L84.4967 57.9016L86.6008 60.4016L77.2467 68.2974Z" fill="#433B32"/>
<path d="M92.4994 52.9456C92.9578 52.6539 93.3119 52.3778 93.5619 52.1122C93.8224 51.8362 94.0046 51.5706 94.1036 51.3206C94.1974 51.0706 94.2182 50.8362 94.1661 50.6122C94.1244 50.3935 94.0307 50.1643 93.8953 49.9247C93.588 49.456 93.1088 49.206 92.4578 49.1747C91.8015 49.1331 90.8171 49.2789 89.4994 49.6122C88.9161 49.7528 88.3224 49.8622 87.7078 49.9456C87.0828 50.0289 86.4786 50.0289 85.8953 49.9456C85.3119 49.8518 84.7599 49.6435 84.2286 49.3206C83.6869 48.9872 83.2026 48.4872 82.7703 47.8206C82.3432 47.1435 82.0828 46.456 81.9994 45.7581C81.9057 45.0653 81.9734 44.3831 82.2078 43.7164C82.4317 43.0393 82.8067 42.3935 83.3328 41.7789C83.8484 41.1539 84.5203 40.581 85.3536 40.0497C86.3276 39.4403 87.239 39.0081 88.0828 38.7581C88.9265 38.5081 89.6661 38.3622 90.2911 38.3206L91.0203 41.5289C90.463 41.5706 89.8796 41.6695 89.2703 41.8206C88.6713 41.9768 88.0359 42.2737 87.3536 42.7164C86.5619 43.206 86.0619 43.6695 85.8536 44.1122C85.6453 44.5445 85.6817 44.9872 85.9578 45.4456C86.1244 45.7112 86.3328 45.8987 86.5828 46.0081C86.8224 46.107 87.1036 46.1539 87.4369 46.1539C87.7599 46.1435 88.1036 46.107 88.4786 46.0497C88.864 45.982 89.2755 45.8831 89.7078 45.7581C90.6505 45.581 91.489 45.4456 92.2286 45.3622C92.963 45.2685 93.6296 45.2893 94.2286 45.4247C94.8224 45.5497 95.364 45.8101 95.8536 46.1956C96.3536 46.5706 96.8224 47.107 97.2703 47.7997C98.1453 49.1643 98.338 50.5237 97.8536 51.8831C97.3796 53.232 96.1869 54.5185 94.2703 55.7372C93.614 56.1435 93.0046 56.4768 92.4369 56.7372C91.864 56.9872 91.3432 57.1851 90.8744 57.3206C90.4005 57.4456 89.9838 57.5445 89.6244 57.6122C89.2599 57.6695 88.9421 57.6956 88.6661 57.6956L87.9578 54.5081C88.5255 54.4664 89.1921 54.3414 89.9578 54.1331C90.7182 53.9247 91.5671 53.5289 92.4994 52.9456Z" fill="#433B32"/>
<path d="M114.171 45.0219C113.754 44.5531 113.317 44.0739 112.858 43.5844C112.4 43.1 111.942 42.6052 111.483 42.1052L105.337 44.8552C105.39 45.5219 105.447 46.1885 105.504 46.8552C105.556 47.5219 105.619 48.1625 105.692 48.7719L102.004 50.4177C101.848 48.4594 101.723 46.6416 101.608 44.9594C101.483 43.2823 101.395 41.6885 101.337 40.1885C101.285 38.6885 101.249 37.2614 101.233 35.8969C101.207 34.5219 101.223 33.1677 101.275 31.8344L104.65 30.3344C105.66 31.1989 106.676 32.0948 107.692 33.0219C108.702 33.9385 109.744 34.9281 110.817 35.9802C111.884 37.0375 113.009 38.1677 114.192 39.376C115.369 40.5844 116.629 41.9073 117.962 43.3344L114.171 45.0219ZM104.483 34.7094C104.509 34.975 104.53 35.3344 104.546 35.7927C104.572 36.251 104.598 36.7823 104.629 37.376C104.655 37.975 104.692 38.6416 104.733 39.376C104.785 40.1 104.843 40.8552 104.9 41.6469L109.379 39.6677C108.837 39.0844 108.306 38.5375 107.796 38.0219C107.296 37.4958 106.827 37.0219 106.4 36.6052C105.968 36.1781 105.587 35.8031 105.254 35.4802C104.931 35.1625 104.676 34.9073 104.483 34.7094Z" fill="#433B32"/>
<path d="M132.104 36.2516C132.297 36.2256 132.511 36.1995 132.75 36.1683C132.985 36.1422 133.271 36.0954 133.604 36.0224C135.505 35.6631 136.823 34.9131 137.563 33.7724C138.297 32.6214 138.505 31.1995 138.188 29.5016C137.839 27.7412 137.136 26.4808 136.084 25.7308C135.026 24.9808 133.547 24.7881 131.646 25.1474C131.38 25.2047 131.11 25.2672 130.834 25.3349C130.552 25.3922 130.297 25.4547 130.063 25.5224L132.104 36.2516ZM142.125 28.7308C142.401 30.2047 142.417 31.5381 142.167 32.7308C141.927 33.9131 141.459 34.9391 140.75 35.8141C140.042 36.6891 139.115 37.4287 137.979 38.0224C136.839 38.6214 135.521 39.0589 134.021 39.3349C133.339 39.4756 132.531 39.6006 131.604 39.7099C130.672 39.8245 129.755 39.8714 128.854 39.8558L125.688 23.3558C126.537 23.0224 127.427 22.7412 128.375 22.5016C129.318 22.2672 130.13 22.0797 130.813 21.9391C132.271 21.6631 133.615 21.5745 134.854 21.6683C136.104 21.7516 137.219 22.0641 138.209 22.6058C139.209 23.1474 140.031 23.9287 140.688 24.9391C141.354 25.9391 141.834 27.2047 142.125 28.7308Z" fill="#433B32"/>
<path d="M148.279 36.8958L147.612 19.6458L159.258 19.2083L159.383 22.4791L151.612 22.7708L151.758 26.1458L158.675 25.8958L158.779 29.0833L151.862 29.3333L152.029 33.4791L160.362 33.1666L160.487 36.4374L148.279 36.8958Z" fill="#433B32"/>
<path d="M180.689 20.9664C183.231 21.4143 185.096 22.1956 186.294 23.3206C187.502 24.4352 187.929 26.0029 187.585 28.0289C187.221 30.0862 186.278 31.456 184.752 32.1331C183.221 32.7997 181.189 32.9195 178.648 32.4872L177.439 32.2789L176.46 37.9664L172.648 37.2997L175.523 20.5289C176.382 20.5185 177.283 20.5602 178.231 20.6539C179.174 20.7529 179.991 20.857 180.689 20.9664ZM180.377 24.2789C180.096 24.2372 179.825 24.206 179.564 24.1747C179.299 24.1331 179.064 24.107 178.856 24.0914L178.002 28.9872L179.21 29.1956C180.544 29.4195 181.57 29.4143 182.294 29.1747C183.028 28.9404 183.481 28.331 183.648 27.3414C183.731 26.8727 183.715 26.4664 183.606 26.1331C183.491 25.7893 183.283 25.4977 182.981 25.2581C182.689 25.0081 182.32 24.8102 181.877 24.6539C181.429 24.5029 180.929 24.3779 180.377 24.2789Z" fill="#433B32"/>
<path d="M200.602 44.2395C200.612 43.5989 200.612 42.9479 200.602 42.2812C200.602 41.6145 200.591 40.9531 200.581 40.302L194.206 38.1562C193.799 38.6875 193.393 39.2135 192.977 39.7395C192.57 40.2656 192.185 40.7812 191.81 41.2812L187.977 40.0104C189.195 38.4583 190.331 37.026 191.372 35.7187C192.424 34.401 193.435 33.1718 194.393 32.0312C195.362 30.8802 196.299 29.7968 197.206 28.7812C198.122 27.7552 199.044 26.7708 199.977 25.8229L203.497 26.9895C203.664 28.3125 203.81 29.651 203.935 31.0104C204.06 32.375 204.164 33.8125 204.247 35.3229C204.331 36.8229 204.393 38.4166 204.435 40.0937C204.487 41.7708 204.523 43.5937 204.539 45.552L200.602 44.2395ZM200.435 30.0937C200.268 30.302 200.029 30.5885 199.727 30.9479C199.435 31.2968 199.102 31.7083 198.727 32.177C198.352 32.6354 197.924 33.151 197.456 33.7187C196.997 34.2916 196.523 34.8854 196.039 35.5104L200.685 37.052C200.669 36.2604 200.654 35.5052 200.643 34.7812C200.628 34.0625 200.602 33.401 200.56 32.802C200.518 32.1927 200.482 31.6562 200.456 31.1979C200.44 30.7291 200.435 30.3593 200.435 30.0937Z" fill="#433B32"/>
<path d="M220.219 33.929C222.521 35.1269 224.079 36.4498 224.886 37.9081C225.688 39.356 225.646 40.9446 224.761 42.679C224.188 43.7623 223.48 44.5071 222.636 44.9081C221.787 45.3144 220.803 45.4706 219.678 45.3873C219.771 45.929 219.865 46.5331 219.948 47.1998C220.042 47.8769 220.12 48.5644 220.178 49.2623C220.23 49.9706 220.261 50.6894 220.261 51.429C220.261 52.179 220.251 52.9081 220.24 53.6165L216.365 51.5956C216.35 50.955 216.329 50.304 216.303 49.6373C216.271 48.9706 216.24 48.3092 216.198 47.6581C216.157 47.0175 216.094 46.4081 216.011 45.8248C215.938 45.231 215.855 44.6737 215.761 44.1581L214.053 43.2831L211.136 48.8873L207.698 47.0956L215.532 31.9915C216.365 32.231 217.198 32.5279 218.032 32.8873C218.865 33.2519 219.594 33.5956 220.219 33.929ZM218.907 36.9706C218.657 36.8456 218.428 36.7415 218.219 36.6581C218.021 36.5644 217.823 36.4706 217.615 36.3873L215.469 40.554L216.448 41.054C217.751 41.7362 218.766 42.0644 219.49 42.0331C220.209 41.9915 220.771 41.5852 221.178 40.804C221.563 40.054 221.558 39.3769 221.157 38.7623C220.766 38.1373 220.016 37.5435 218.907 36.9706Z" fill="#433B32"/>
<path d="M243.882 49.2095L241.944 51.897L237.715 48.8553L229.569 60.1887L226.424 57.9178L234.569 46.5845L230.34 43.5428L232.278 40.8553L243.882 49.2095Z" fill="#433B32"/>
<path d="M236.718 65.792L248.656 53.3129L257.072 61.3754L254.802 63.7295L249.197 58.3545L246.864 60.8129L251.864 65.5837L249.656 67.8962L244.656 63.1254L241.781 66.1254L247.822 71.8962L245.572 74.2504L236.718 65.792Z" fill="#433B32"/>
<path d="M253.615 79.3241C253.958 79.7407 254.281 80.0584 254.573 80.2824C254.865 80.5011 255.135 80.647 255.385 80.7199C255.646 80.7876 255.891 80.7876 256.115 80.7199C256.349 80.6626 256.562 80.5532 256.76 80.3866C257.203 80.0376 257.406 79.5376 257.365 78.8866C257.333 78.2303 257.083 77.2668 256.615 75.9907C256.417 75.423 256.245 74.8397 256.094 74.2407C255.937 73.6313 255.875 73.0272 255.906 72.4282C255.948 71.8188 256.094 71.2355 256.344 70.6782C256.604 70.1261 257.052 69.5949 257.677 69.0949C258.302 68.5949 258.953 68.272 259.635 68.1157C260.328 67.9491 261.016 67.9438 261.698 68.0949C262.391 68.2511 263.073 68.5532 263.74 69.0116C264.417 69.4595 265.073 70.0688 265.698 70.8449C266.406 71.7511 266.917 72.6105 267.24 73.4282C267.573 74.2355 267.802 74.9595 267.927 75.5949L264.823 76.6157C264.708 76.0741 264.542 75.5116 264.323 74.9282C264.115 74.3449 263.75 73.7355 263.24 73.0949C262.656 72.3761 262.135 71.9386 261.677 71.7824C261.229 71.6157 260.802 71.6991 260.385 72.0324C260.135 72.2303 259.969 72.4491 259.885 72.6991C259.812 72.9386 259.802 73.2199 259.844 73.5532C259.885 73.8761 259.953 74.2199 260.052 74.5949C260.146 74.9595 260.281 75.3553 260.448 75.7824C260.75 76.6834 260.979 77.4959 261.135 78.2199C261.302 78.9543 261.349 79.6261 261.281 80.2407C261.208 80.8501 261.016 81.4178 260.698 81.9491C260.375 82.4751 259.891 83.0011 259.24 83.5324C257.974 84.5324 256.646 84.8657 255.26 84.5324C253.87 84.2095 252.458 83.1626 251.031 81.3866C250.557 80.7876 250.161 80.2095 249.844 79.6574C249.536 79.1157 249.286 78.6157 249.094 78.1574C248.911 77.7095 248.771 77.3084 248.677 76.9491C248.578 76.6001 248.51 76.2876 248.469 76.0116L251.573 74.9699C251.667 75.5428 251.865 76.1886 252.156 76.9282C252.448 77.6626 252.932 78.4595 253.615 79.3241Z" fill="#433B32"/>
<path d="M57.4402 216.902L59.3985 220.256L44.461 228.944L42.5027 225.59L57.4402 216.902Z" fill="#433B32"/>
<path d="M53.0405 241.668L66.2489 230.543L73.7489 239.46L71.2489 241.564L66.2489 235.626L63.6447 237.814L68.0822 243.106L65.6447 245.168L61.2072 239.876L58.0405 242.543L63.4155 248.939L60.9155 251.043L53.0405 241.668Z" fill="#433B32"/>
<path d="M76.887 261.62C77.3037 261.964 77.6839 262.214 78.0329 262.37C78.3766 262.522 78.6839 262.6 78.9495 262.6C79.21 262.61 79.4391 262.558 79.637 262.433C79.8454 262.318 80.0329 262.167 80.1995 261.975C80.5433 261.516 80.6266 260.975 80.4495 260.35C80.2673 259.725 79.8037 258.844 79.0537 257.704C78.7308 257.204 78.4287 256.678 78.137 256.12C77.8558 255.568 77.6631 254.995 77.5537 254.412C77.4548 253.818 77.4704 253.219 77.5954 252.62C77.7204 252.011 78.0329 251.391 78.5329 250.766C79.0329 250.141 79.5954 249.678 80.2204 249.37C80.8558 249.053 81.5329 248.891 82.2412 248.891C82.9495 248.881 83.6787 249.016 84.4287 249.308C85.1891 249.589 85.96 250.037 86.7412 250.662C87.6423 251.37 88.3454 252.094 88.8454 252.829C89.3558 253.553 89.7412 254.199 89.9912 254.766L87.1787 256.495C86.9704 255.995 86.6891 255.49 86.3454 254.975C85.9964 254.449 85.5016 253.928 84.8662 253.412C84.1423 252.829 83.5381 252.516 83.0537 252.475C82.5798 252.423 82.1787 252.6 81.8454 253.016C81.6475 253.266 81.5381 253.527 81.512 253.787C81.4964 254.037 81.5381 254.318 81.637 254.62C81.7464 254.928 81.8923 255.245 82.0745 255.579C82.2673 255.912 82.4964 256.277 82.762 256.662C83.2464 257.469 83.6475 258.214 83.9704 258.891C84.3037 259.558 84.5016 260.193 84.5745 260.808C84.6423 261.417 84.5798 262.016 84.387 262.6C84.1891 263.183 83.8298 263.798 83.3037 264.454C82.3037 265.714 81.0798 266.35 79.637 266.35C78.2048 266.35 76.6006 265.631 74.8245 264.204C74.2256 263.73 73.71 263.266 73.2829 262.808C72.8662 262.36 72.512 261.933 72.2204 261.516C71.9391 261.11 71.71 260.751 71.5329 260.433C71.3662 260.11 71.2256 259.818 71.1162 259.558L73.9079 257.829C74.1423 258.37 74.4808 258.969 74.9287 259.62C75.3714 260.272 76.0225 260.938 76.887 261.62Z" fill="#433B32"/>
<path d="M118.762 281.138C118.47 281.93 118.101 282.649 117.658 283.284C117.226 283.935 116.689 284.435 116.054 284.784C115.413 285.144 114.658 285.336 113.783 285.368C112.918 285.394 111.918 285.201 110.783 284.784C109.71 284.394 108.845 283.92 108.179 283.368C107.512 282.826 106.991 282.3 106.616 281.784L108.866 279.409C109.226 279.857 109.621 280.274 110.054 280.659C110.496 281.05 111.022 281.357 111.637 281.576C112.522 281.909 113.241 281.93 113.783 281.638C114.335 281.336 114.804 280.67 115.179 279.638L119.075 269.055L122.72 270.388L118.762 281.138Z" fill="#433B32"/>
<path d="M139.275 292.125C136.494 291.693 134.504 290.589 133.296 288.813C132.088 287.037 131.702 284.73 132.15 281.896C132.359 280.48 132.765 279.261 133.379 278.23C134.004 277.188 134.76 276.344 135.65 275.688C136.536 275.037 137.546 274.599 138.671 274.375C139.796 274.157 140.984 274.141 142.234 274.334C142.968 274.448 143.619 274.605 144.192 274.813C144.775 275.011 145.275 275.209 145.692 275.417C146.119 275.625 146.468 275.829 146.734 276.021C146.994 276.204 147.182 276.344 147.296 276.438L145.713 279.396C145.223 279.037 144.65 278.704 143.984 278.396C143.327 278.094 142.557 277.87 141.671 277.73C141.088 277.636 140.489 277.641 139.879 277.75C139.28 277.865 138.734 278.105 138.234 278.48C137.744 278.844 137.317 279.349 136.942 280C136.567 280.657 136.301 281.469 136.15 282.438C136.025 283.23 135.994 283.98 136.067 284.688C136.135 285.396 136.322 286.032 136.629 286.584C136.932 287.125 137.379 287.594 137.963 287.98C138.546 288.37 139.275 288.636 140.15 288.771C140.718 288.855 141.223 288.896 141.671 288.896C142.129 288.896 142.53 288.886 142.879 288.855C143.239 288.813 143.557 288.761 143.838 288.688C144.129 288.605 144.39 288.532 144.629 288.459L145.192 291.73C144.609 291.948 143.796 292.115 142.754 292.23C141.723 292.355 140.567 292.318 139.275 292.125Z" fill="#433B32"/>
<path d="M162.605 275.773C162.938 276.315 163.324 276.971 163.772 277.732C164.23 278.497 164.709 279.331 165.209 280.232C165.709 281.138 166.199 282.06 166.688 283.002C167.188 283.935 167.657 284.815 168.105 285.648C168.397 284.763 168.709 283.815 169.042 282.815C169.376 281.804 169.714 280.81 170.063 279.836C170.407 278.867 170.74 277.971 171.063 277.148C171.397 276.315 171.678 275.607 171.917 275.023L175.459 274.732C175.72 275.857 175.98 277.127 176.23 278.544C176.49 279.95 176.735 281.409 176.959 282.919C177.194 284.435 177.417 285.961 177.626 287.502C177.845 289.034 178.048 290.476 178.23 291.836L174.438 292.148C174.256 290.471 174.042 288.648 173.792 286.69C173.553 284.732 173.272 282.763 172.938 280.773C172.688 281.497 172.417 282.294 172.126 283.169C171.845 284.034 171.563 284.898 171.272 285.773C170.98 286.648 170.694 287.482 170.417 288.273C170.152 289.065 169.928 289.747 169.751 290.315L167.022 290.544C166.756 290.002 166.428 289.367 166.042 288.627C165.652 287.893 165.24 287.117 164.813 286.294C164.381 285.476 163.949 284.664 163.522 283.857C163.089 283.039 162.694 282.294 162.334 281.627C162.334 283.643 162.365 285.638 162.438 287.607C162.522 289.581 162.61 291.409 162.709 293.086L158.938 293.398C158.897 292.039 158.855 290.586 158.813 289.044C158.782 287.492 158.756 285.94 158.73 284.398C158.714 282.857 158.72 281.377 158.751 279.961C158.792 278.534 158.845 277.242 158.917 276.086L162.605 275.773Z" fill="#433B32"/>
<path d="M213.192 266.869C213.453 267.442 213.593 268.046 213.609 268.681C213.635 269.322 213.578 269.973 213.442 270.64C213.317 271.296 213.135 271.952 212.9 272.619C212.661 273.275 212.411 273.905 212.15 274.515C212.036 274.838 211.911 275.192 211.775 275.577C211.635 275.952 211.505 276.338 211.38 276.723C211.255 277.098 211.156 277.452 211.088 277.786C211.015 278.108 210.989 278.348 211.005 278.515L217.734 275.39L219.046 278.202L208.63 283.056C208.515 282.905 208.4 282.702 208.275 282.452C208.15 282.192 208.067 282.009 208.025 281.911C207.677 281.176 207.484 280.463 207.442 279.765C207.4 279.056 207.442 278.358 207.567 277.661C207.703 276.952 207.906 276.265 208.171 275.598C208.447 274.921 208.713 274.254 208.963 273.598C209.156 273.088 209.338 272.598 209.505 272.14C209.682 271.671 209.822 271.233 209.921 270.827C210.015 270.426 210.067 270.051 210.067 269.702C210.067 269.343 209.994 269.009 209.859 268.702C209.536 268.036 209.13 267.655 208.63 267.556C208.14 267.463 207.614 267.546 207.046 267.806C206.645 268.004 206.296 268.244 206.005 268.536C205.713 268.817 205.463 269.114 205.255 269.431C205.036 269.754 204.859 270.046 204.734 270.306C204.609 270.572 204.52 270.786 204.463 270.952L201.692 269.369C202.057 268.452 202.583 267.593 203.275 266.786C203.973 265.983 204.828 265.343 205.838 264.869C206.77 264.442 207.614 264.176 208.38 264.077C209.14 263.983 209.822 264.03 210.421 264.223C211.031 264.405 211.557 264.718 212.005 265.161C212.463 265.608 212.859 266.176 213.192 266.869Z" fill="#433B32"/>
<path d="M235.799 256.927C237.507 259.276 238.371 261.406 238.403 263.323C238.429 265.229 237.658 266.755 236.09 267.906C234.517 269.047 232.825 269.318 231.007 268.719C229.205 268.109 227.444 266.63 225.736 264.281C224.877 263.115 224.236 262 223.819 260.927C223.392 259.844 223.174 258.839 223.174 257.906C223.163 256.964 223.351 256.109 223.736 255.344C224.111 254.568 224.689 253.901 225.465 253.344C227.038 252.193 228.726 251.922 230.528 252.531C232.33 253.13 234.09 254.594 235.799 256.927ZM232.736 259.177C232.22 258.484 231.72 257.88 231.236 257.365C230.746 256.839 230.283 256.422 229.84 256.115C229.382 255.797 228.944 255.615 228.528 255.573C228.101 255.531 227.705 255.651 227.34 255.927C226.955 256.208 226.726 256.552 226.653 256.969C226.569 257.375 226.606 257.839 226.757 258.365C226.897 258.896 227.142 259.469 227.486 260.094C227.835 260.708 228.267 261.359 228.778 262.052C229.278 262.75 229.772 263.359 230.257 263.885C230.757 264.417 231.236 264.833 231.694 265.135C232.163 265.443 232.601 265.625 233.007 265.677C233.424 265.719 233.825 265.604 234.215 265.323C234.575 265.047 234.799 264.698 234.882 264.281C234.976 263.865 234.944 263.401 234.778 262.885C234.621 262.359 234.366 261.781 234.007 261.156C233.658 260.531 233.236 259.875 232.736 259.177Z" fill="#433B32"/>
<path d="M249.253 238.045C249.711 238.477 250.065 238.983 250.315 239.566C250.576 240.139 250.774 240.753 250.899 241.42C251.024 242.076 251.096 242.753 251.128 243.462C251.169 244.17 251.19 244.847 251.19 245.483C251.19 245.831 251.195 246.212 251.211 246.628C251.221 247.035 251.242 247.436 251.274 247.837C251.315 248.227 251.362 248.587 251.419 248.92C251.487 249.253 251.565 249.498 251.649 249.649L256.669 244.191L258.94 246.295L251.149 254.753C250.982 254.66 250.794 254.514 250.586 254.316C250.378 254.123 250.232 253.993 250.149 253.92C249.565 253.378 249.122 252.79 248.815 252.149C248.497 251.514 248.268 250.847 248.128 250.149C247.992 249.456 247.914 248.748 247.899 248.024C247.888 247.29 247.878 246.566 247.878 245.858C247.852 245.305 247.836 244.785 247.836 244.295C247.826 243.811 247.789 243.358 247.732 242.941C247.68 242.524 247.581 242.16 247.44 241.837C247.305 241.503 247.107 241.222 246.857 240.983C246.315 240.483 245.805 240.29 245.315 240.399C244.815 240.498 244.352 240.774 243.919 241.233C243.628 241.555 243.399 241.91 243.232 242.295C243.065 242.67 242.951 243.045 242.878 243.42C242.794 243.795 242.747 244.128 242.732 244.42C242.706 244.712 242.69 244.951 242.69 245.128L239.565 244.691C239.555 243.706 239.711 242.706 240.044 241.691C240.378 240.68 240.93 239.764 241.69 238.941C242.372 238.191 243.055 237.628 243.732 237.253C244.399 236.878 245.055 236.665 245.69 236.608C246.315 236.555 246.93 236.649 247.524 236.899C248.122 237.149 248.701 237.535 249.253 238.045Z" fill="#433B32"/>
<path d="M270.093 231.512C269.854 231.903 269.583 232.293 269.281 232.679C268.989 233.069 268.666 233.439 268.322 233.783C267.989 234.116 267.666 234.418 267.364 234.679C267.072 234.944 266.822 235.153 266.614 235.304L264.385 233.054C264.76 232.778 265.218 232.408 265.76 231.949C266.291 231.491 266.807 230.84 267.322 229.991C267.932 229.022 268.187 228.194 268.093 227.512C268.01 226.819 267.656 226.278 267.031 225.887C266.656 225.668 266.291 225.564 265.926 225.574C265.551 225.574 265.197 225.668 264.864 225.845C264.52 226.028 264.192 226.293 263.885 226.637C263.583 226.986 263.296 227.382 263.031 227.824L262.281 229.033L259.739 227.47L260.593 226.074C260.791 225.772 260.947 225.46 261.072 225.137C261.197 224.804 261.27 224.486 261.281 224.179C261.281 223.861 261.208 223.564 261.051 223.283C260.9 223.007 260.645 222.762 260.281 222.554C260.031 222.387 259.775 222.298 259.51 222.283C259.234 222.272 258.979 222.319 258.739 222.429C258.489 222.528 258.27 222.673 258.072 222.866C257.864 223.048 257.687 223.262 257.531 223.512C257.171 224.111 256.921 224.731 256.781 225.366C256.645 226.007 256.583 226.616 256.593 227.199L253.572 226.908C253.572 226.59 253.593 226.231 253.635 225.824C253.666 225.423 253.729 225.002 253.822 224.554C253.906 224.111 254.041 223.653 254.218 223.179C254.4 222.71 254.63 222.241 254.906 221.783C255.437 220.923 255.999 220.241 256.593 219.741C257.192 219.241 257.801 218.903 258.426 218.72C259.051 218.543 259.676 218.507 260.301 218.616C260.926 218.731 261.531 218.965 262.114 219.324C262.697 219.689 263.166 220.199 263.51 220.866C263.843 221.522 263.989 222.21 263.947 222.929C264.739 222.361 265.572 222.064 266.447 222.033C267.307 221.991 268.176 222.236 269.051 222.762C269.718 223.179 270.265 223.679 270.697 224.262C271.14 224.835 271.416 225.486 271.531 226.22C271.64 226.96 271.583 227.772 271.364 228.658C271.14 229.533 270.718 230.486 270.093 231.512Z" fill="#433B32"/>
</svg>
